<?xml version="1.0" encoding="UTF-8"?>
<svg id="Layer_1" xmlns="http://www.w3.org/2000/svg" version="1.1" viewBox="0 0 59 59">
  <!-- Generator: Adobe Illustrator 30.2.1, SVG Export Plug-In . SVG Version: 2.1.1 Build 1)  -->
  <defs>
    <style>
      .st0 {
        fill: #ff4f2c;
      }
    </style>
  </defs>
  <path class="st0" d="M9.4,20.1L.6,28.9c-.3.3-.3.8,0,1.1l8.8,8.8c.6.6,1.6,0,1.3-.8-2.1-5.5-2.1-11.6,0-17,.3-.8-.7-1.4-1.3-.8h0Z"/>
  <path class="st0" d="M20.1,9.4L28.9.6c.3-.3.8-.3,1.1,0l8.8,8.8c.6.6,0,1.6-.8,1.3-5.5-2.1-11.6-2.1-17,0-.8.3-1.4-.7-.8-1.3h-.1Z"/>
  <path class="st0" d="M49.6,38.9l8.8-8.8c.3-.3.3-.8,0-1.1l-8.8-8.8c-.6-.6-1.6,0-1.3.8,2.1,5.5,2.1,11.6,0,17-.3.8.7,1.4,1.3.8h0Z"/>
  <path class="st0" d="M38.9,49.6l-8.8,8.8c-.3.3-.8.3-1.1,0l-8.8-8.8c-.6-.6,0-1.6.8-1.3,5.5,2.1,11.6,2.1,17,0,.8-.3,1.4.7.8,1.3h.1Z"/>
</svg>