<?xml version="1.0" encoding="UTF-8"?>
<svg id="Layer_1" xmlns="http://www.w3.org/2000/svg" version="1.1" viewBox="0 0 76.3 76.3">
  <!-- Generator: Adobe Illustrator 30.2.1, SVG Export Plug-In . SVG Version: 2.1.1 Build 1)  -->
  <defs>
    <style>
      .st0 {
        fill: #f4f4eb;
      }
    </style>
  </defs>
  <path class="st0" d="M75.8,18.2V1.7c0-.5-.4-1-1-1h-16.1c-1,0-1.4,1.4-.4,1.9,7,3.2,12.6,8.9,15.6,16,.4,1,1.9.7,1.9-.4Z"/>
  <path class="st0" d="M.6,58.2v16.5c0,.5.4,1,1,1h16.1c1,0,1.4-1.4.4-1.9-7-3.2-12.6-8.9-15.6-16-.4-1-1.9-.7-1.9.4Z"/>
  <path class="st0" d="M58.3,75.6h16.5c.5,0,1-.4,1-1v-16.1c0-1-1.4-1.4-1.9-.4-3.2,7-8.9,12.6-16,15.6-1,.4-.7,1.9.4,1.9h0Z"/>
  <path class="st0" d="M18.1.8H1.6c-.5,0-1,.4-1,1v16.1c0,1,1.4,1.4,1.9.4C5.7,11.3,11.4,5.7,18.5,2.7c1-.4.7-1.9-.4-1.9Z"/>
</svg>