<?xml version="1.0" encoding="UTF-8"?>
<svg id="Layer_1" xmlns="http://www.w3.org/2000/svg" version="1.1" viewBox="0 0 572.5 81.1">
  <!-- Generator: Adobe Illustrator 30.0.0, SVG Export Plug-In . SVG Version: 2.1.1 Build 123)  -->
  <defs>
    <style>
      .st0 {
        fill: #ff4f2c;
      }

      .st1 {
        fill: #f4f4eb;
      }
    </style>
  </defs>
  <g>
    <path class="st1" d="M101.3,8.6h24.6v3.1h-10.5v28h-3.6V11.6h-10.5v-3.1h0Z"/>
    <path class="st1" d="M140.3,25.4l7.9-.4v-1.5c0-4.6-2.3-6.4-6.8-6.4s-6,.6-7.4.9l-.3-3.2c.7-.2,3.8-.8,7.7-.8,7.2,0,10.3,3.1,10.3,9.4v7.6c0,2.9.4,5.9.8,8.6l-2.6.4c-.5-1.9-.8-3.7-1.1-5.6h-.1c-1.6,3.9-5,5.7-9,5.7s-8.1-3.1-8.1-7.7,2.4-6.6,8.7-7h0ZM140.3,37c3.7,0,7.8-2.5,7.8-6.7v-2.8l-7,.5c-4.9.3-6,2.1-6,4.4s1.9,4.7,5.1,4.7h0Z"/>
    <path class="st1" d="M163.1,49.1c-1.4,0-2.6-.2-3.9-.6l.3-3.2c1,.3,2.4.6,3.8.6,3.3,0,5.3-1.2,7-5.5l-10.6-25.8,3.6-.6,5.8,15.1c.8,2.1,1.7,4.3,2.5,6.4h.2l6.1-21.4,3.6.5-7.4,24.2c-2.4,7.7-5.6,10.3-11,10.3h0Z"/>
    <path class="st1" d="M191.8,30.3V7.2l-7.1.3.3-3.3h10.4v25.3c0,4.8,1.8,7.4,6,7.4s3.5-.4,4.8-.7l.4,3.3c-1.3.4-3.3.7-5.4.7-6.6,0-9.3-3.7-9.3-9.8h0Z"/>
    <path class="st1" d="M214.1,28v-2.1c0-7.6,3.9-12.1,11-12.1s10.9,4.5,10.9,12.1v2.1c0,7.6-3.9,12.1-11,12.1s-10.9-4.5-10.9-12.1ZM225.1,36.9c4.9,0,7.4-3.1,7.4-9v-2.1c0-5.9-2.5-9-7.4-9s-7.4,3-7.4,9v2.1c0,5.9,2.5,9,7.4,9Z"/>
    <path class="st1" d="M249.5,17.2l-6.7.3.3-3.2h9.6v7.1h.3c2.7-3.4,8-6.8,12-8.1l1.4,4c-4.8,1.1-9.7,3.7-13.3,7v15.2h-3.6v-22.4h0Z"/>
    <path class="st1" d="M299.5,22.6h8.8v14.6c-2.2,1.6-4.6,2.4-8.4,2.4-7.3,0-11.5-4.5-11.5-12.5v-7.1c0-7.4,4.2-12.4,11.9-12.4s5.5.3,7.1.5l-.5,3.1c-1.5-.2-3.9-.5-7-.5-4.9,0-7.9,3.5-7.9,9.3v7.1c0,5.9,2.9,9.5,8.2,9.5s3.3-.4,4.5-.9v-10.1l-5.3.2v-3.1h0Z"/>
    <path class="st1" d="M320.5,27.7c0,5.7,2.9,8.8,8.4,8.8s4.8-.7,6.9-1.9l1,2.8c-2.5,1.4-5.1,2.2-8.2,2.2-7.2,0-11.6-4.3-11.6-12.2v-2.1c0-7.2,4-12.1,10.9-12.1s10.5,4.7,10.5,11.9v2.5h-17.9,0ZM334.9,24.8c-.1-5.4-2.7-8.4-7.1-8.4s-7.2,2.9-7.3,8.4h14.4Z"/>
    <path class="st1" d="M345.3,27.5v-2.1c0-7.6,3.9-12.1,11-12.1s10.9,4.5,10.9,12.1v2.1c0,7.6-3.9,12.1-11,12.1s-10.9-4.5-10.9-12.1ZM356.2,36.4c4.9,0,7.4-3.1,7.4-9v-2.1c0-5.9-2.5-9-7.4-9s-7.4,3-7.4,9v2.1c0,5.9,2.5,9,7.4,9Z"/>
    <path class="st1" d="M374.7,36.7l1.3-2.9c2,1.3,5.5,2.8,9.2,2.8s6.4-1.3,6.4-4.4-1.1-3.2-4.8-4.1l-5-1.3c-3.6-.9-5.7-2.9-5.7-6.4s3.7-7.1,9.4-7.1,7.1,1,8.7,1.6l-.9,3c-1.3-.6-4.6-1.6-7.8-1.6s-5.9,1.3-5.9,4,1.4,2.9,4,3.5l4.1,1c4.8,1.2,7.4,2.9,7.4,7.1s-3.7,7.7-9.9,7.7-8.6-1.6-10.5-2.9h0Z"/>
    <path class="st1" d="M408,37.6h-.2c.2,2.9.2,5.7.2,8.5v3h-3.6V13.7h2.6l.4,2.2h0c1.7-1.4,4.4-2.6,7.7-2.6,6.4,0,9.4,4.3,9.4,11.6v2.4c0,7.6-3.6,12.3-10.3,12.3s-4.7-.8-6.2-1.9h0ZM414,36.4c4.4,0,6.9-3.4,6.9-8.7v-2.8c0-5.7-2.2-8.7-7.1-8.7s-4.2.6-5.9,1.4v17.3c1.7,1.1,3.8,1.5,6.1,1.5Z"/>
    <path class="st1" d="M440.6,24.9l7.9-.4v-1.5c0-4.6-2.3-6.4-6.8-6.4s-6,.6-7.4.9l-.3-3.2c.7-.2,3.8-.8,7.7-.8,7.2,0,10.3,3.1,10.3,9.4v7.6c0,2.9.4,5.9.8,8.6l-2.6.4c-.5-1.9-.8-3.7-1.1-5.6h-.1c-1.6,3.9-5,5.7-9,5.7s-8.1-3.1-8.1-7.7,2.4-6.6,8.7-7ZM440.6,36.5c3.7,0,7.8-2.5,7.8-6.7v-2.8l-7,.5c-4.9.3-6,2.1-6,4.4s1.9,4.7,5.1,4.7h.1Z"/>
    <path class="st1" d="M464.9,13.9v-6.9h3.6v6.9h12.8c0-.1-.4,3-.4,3h-12.4v14.2c0,3.4,2,5.4,6,5.4s4.6-.6,6.2-1.1l.3,3.1c-1.7.6-4.7,1.2-7.3,1.2-5.9,0-8.9-2.9-8.9-7.8v-15h-6v-2.9h6.1Z"/>
    <path class="st1" d="M497.1,30.3v-13.7l-8.3.3.2-3.2h11.7v15.8c0,4.2.7,6.7,4.5,6.7s3.6-.5,4.7-1l.6,3c-1.3.6-3.7,1.3-6,1.3-5.1,0-7.4-2.8-7.4-9.2h0ZM498.9,1.8c1.7,0,2.9,1.1,2.9,2.6s-1.3,2.7-2.9,2.7-2.9-1.2-2.9-2.7,1.3-2.6,2.9-2.6Z"/>
    <path class="st1" d="M526,24.9l7.9-.4v-1.5c0-4.6-2.3-6.4-6.8-6.4s-6,.6-7.4.9l-.3-3.2c.7-.2,3.8-.8,7.7-.8,7.2,0,10.3,3.1,10.3,9.4v7.6c0,2.9.4,5.9.8,8.6l-2.6.4c-.5-1.9-.8-3.7-1.1-5.6h0c-1.6,3.9-5,5.7-9,5.7s-8.1-3.1-8.1-7.7,2.4-6.6,8.7-7h0ZM526.1,36.5c3.7,0,7.8-2.5,7.8-6.7v-2.8l-7,.5c-4.9.3-6,2.1-6,4.4s1.9,4.7,5.1,4.7h.1Z"/>
    <path class="st1" d="M552.4,29.7V6.6l-7.1.3.3-3.3h10.4v25.3c0,4.8,1.8,7.4,6,7.4s3.5-.4,4.8-.7l.4,3.3c-1.3.4-3.3.7-5.4.7-6.6,0-9.3-3.7-9.3-9.8h-.1Z"/>
  </g>
  <g>
    <g>
      <path class="st1" d="M22.8,29.7l-8.8,8.8c-.3.3-.3.8,0,1.1l8.8,8.8c.6.6,1.5,0,1.3-.8-2-5.5-2-11.5,0-17,.3-.8-.7-1.4-1.3-.8h0Z"/>
      <path class="st1" d="M33.4,19l8.8-8.8c.3-.3.8-.3,1.1,0l8.8,8.8c.6.6,0,1.5-.8,1.3-5.5-2-11.5-2-17,0-.8.3-1.4-.7-.8-1.3h0Z"/>
      <path class="st1" d="M62.7,48.4l8.8-8.8c.3-.3.3-.8,0-1.1l-8.8-8.8c-.6-.6-1.5,0-1.3.8,2,5.5,2,11.5,0,17s.7,1.4,1.3.8h0Z"/>
      <path class="st1" d="M52.1,59l-8.8,8.8c-.3.3-.8.3-1.1,0l-8.8-8.8c-.6-.6,0-1.5.8-1.3,5.5,2,11.5,2,17,0,.8-.3,1.4.7.8,1.3h0Z"/>
    </g>
    <g>
      <path class="st1" d="M80.1,19.2V2.8c0-.5-.4-1-1-1h-16c-1,0-1.4,1.4-.4,1.9,7,3.2,12.5,8.8,15.5,15.9.4,1,1.9.7,1.9-.4Z"/>
      <path class="st1" d="M5.4,58.9v16.4c0,.5.4,1,1,1h16c1,0,1.4-1.4.4-1.9-7-3.2-12.5-8.8-15.5-15.9-.4-1-1.9-.7-1.9.4Z"/>
      <path class="st1" d="M62.7,76.2h16.4c.5,0,1-.4,1-1v-16c0-1-1.4-1.4-1.9-.4-3.2,7-8.8,12.5-15.9,15.5-1,.4-.7,1.9.4,1.9Z"/>
      <path class="st1" d="M22.7,1.8H6.3c-.5,0-1,.4-1,1v16c0,1,1.4,1.4,1.9.4,3.2-7,8.8-12.5,15.9-15.5,1-.4.7-1.9-.4-1.9Z"/>
    </g>
  </g>
  <g>
    <path class="st0" d="M105,65.9v5.5h-2.2v-14.1h9.4v2h-7.2v4.7h6.4v1.9h-6.4Z"/>
    <path class="st0" d="M113.7,65.9c0-3.6,2.2-5.7,5.5-5.7s5.5,2.1,5.5,5.7-2,5.8-5.5,5.8-5.5-2.2-5.5-5.8ZM115.7,65.9c0,2.5,1.1,4,3.4,4s3.5-1.6,3.5-4-1.2-4-3.5-4-3.5,1.5-3.5,4h0Z"/>
    <path class="st0" d="M126.9,71.5v-11h2v3.1h.2c.6-2.4,1.7-3.2,3.4-3.2h.4v2.3h-.6c-2.4,0-3.3.9-3.3,3.4v5.4h-2.1Z"/>
    <path class="st0" d="M139.9,62.2h-1.7v-1.7h1.7v-3.1h2v3.1h3.5v1.7h-3.5v5.8c0,1.2.5,1.9,1.7,1.9s1.1,0,1.7-.3l.3,1.8c-.8.2-1.3.4-2.4.4-2.3,0-3.3-1.5-3.3-3.6v-6Z"/>
    <path class="st0" d="M149.5,71.5h-2v-15.1h2v7h.2c.6-1.9,2-3.1,4-3.1s3.5,1.6,3.5,4v7.3h-2v-6.8c0-1.5-.7-2.6-2.4-2.6s-3.3,1.2-3.3,3.1v6.3h0Z"/>
    <path class="st0" d="M159.3,66.1c0-3.7,2.1-5.9,5.5-5.9s4.9,2,4.9,5.1,0,.8,0,1.3h-8.3c.2,2.2,1.3,3.5,3.5,3.5s2.7-1,3-2.2l1.8.5c-.5,2.1-2,3.4-4.8,3.4s-5.5-2-5.5-5.7h0ZM161.4,65.1h6.4c0-2.1-1.1-3.3-3.1-3.3s-3.1,1.1-3.3,3.3h0Z"/>
    <path class="st0" d="M176.6,57.4h5.5c4.8,0,7.1,2.5,7.1,7s-2.7,7.2-7,7.2h-5.6v-14.1h0ZM178.8,59.2v10.5h3.2c3.6,0,5.1-2,5.1-5.3s-1.6-5.2-5.2-5.2c0,0-3.1,0-3.1,0Z"/>
    <path class="st0" d="M191.4,58.4v-1.9h2.4v1.9h-2.4ZM191.6,71.5v-11h2v11h-2Z"/>
    <path class="st0" d="M201,75.5c-4.1,0-5.4-.9-5.4-2.4s.9-1.6,2.5-2h0c-.8-.3-1.4-.7-1.4-1.5s.5-1.1,1.1-1.4l.8-.5c-1.6-.5-2.4-1.7-2.4-3.4,0-2.5,1.8-3.8,4.8-3.8h5.3v1.6h-1.3c-.6,0-1.3,0-2.3,0v.2c1.5.3,2.8.9,2.8,2.5s-1.6,3.3-4.7,3.3-1.3,0-1.9-.2l-.3.5c-.2.3-.3.5-.3.8,0,.5.4.7,1.2.7h3.7c2.2,0,3.4,1,3.4,2.6s-1.4,3.2-5.6,3.2h0ZM204.9,72.3c0-.7-.5-1.2-1.7-1.2h-4c-1.4,0-2,.7-2,1.4,0,1,.8,1.4,3.8,1.4s3.9-.5,3.9-1.6ZM198.1,64.3c0,1.4.8,2.2,2.8,2.2s2.8-.8,2.8-2.2-1-2.2-2.9-2.2-2.7.9-2.7,2.2h0Z"/>
    <path class="st0" d="M208.5,58.4v-1.9h2.4v1.9h-2.4ZM208.7,71.5v-11h2v11h-2Z"/>
    <path class="st0" d="M214.5,62.2h-1.7v-1.7h1.7v-3.1h2v3.1h3.5v1.7h-3.5v5.8c0,1.2.5,1.9,1.7,1.9s1.1,0,1.7-.3l.3,1.8c-.8.2-1.3.4-2.4.4-2.3,0-3.3-1.5-3.3-3.6v-6Z"/>
    <path class="st0" d="M229,68.9h-.2c-.5,1.8-2,2.8-3.9,2.8s-3.4-.9-3.4-3.1,1.2-3.3,3.9-3.3h3.5v-.9c0-1.6-.6-2.5-2.4-2.5s-2.3.7-2.7,2.2l-1.9-.5c.4-2.1,2-3.4,4.7-3.4s4.4,1.5,4.4,4.2v7h-2v-2.6h0ZM228.9,67.4v-.6h-3.2c-1.4,0-2.3.6-2.3,1.6s.5,1.6,2.2,1.6,3.3-1.1,3.3-2.7h0Z"/>
    <path class="st0" d="M235.9,71.5h-2v-15.1h2v15.1Z"/>
    <path class="st0" d="M245.7,66.4v5h-2.2v-14.1h5.5c3.3,0,5,1.5,5,4.5s-1.7,4.5-4.9,4.5h-3.4ZM245.7,59.2v5.4h3.2c2.1,0,3-.8,3-2.7s-.8-2.7-3.1-2.7h-3.1,0Z"/>
    <path class="st0" d="M263.5,68.6h-.2c-.6,2-2.1,3.2-4,3.2s-3.6-1.6-3.6-4v-7.2h2v6.8c0,1.5.6,2.6,2.4,2.6s3.2-1.2,3.2-3.1v-6.3h2v11h-2v-2.9h.2Z"/>
    <path class="st0" d="M270.4,63.4h.2c.5-1.9,1.8-3.2,3.9-3.2s4.3,2.1,4.3,5.8-1.6,5.8-4.2,5.8-3.5-1.4-4-3.2h-.1v3h-2v-15.1h2v7h0ZM276.8,66c0-2.7-1-3.9-3.1-3.9s-3.2,1.4-3.2,3.5v.8c0,2.1,1.3,3.5,3.2,3.5s3.1-1.3,3.1-4h0Z"/>
    <path class="st0" d="M283.1,71.5h-2v-15.1h2v15.1Z"/>
    <path class="st0" d="M286.2,58.4v-1.9h2.4v1.9h-2.4ZM286.3,71.5v-11h2v11h-2Z"/>
    <path class="st0" d="M296.3,62c-2.1,0-3.3,1.3-3.3,4s1.2,4,3.4,4,2.7-1.2,3.1-2.7l1.9.5c-.5,2.5-2,4-4.9,4s-5.6-2.1-5.6-5.7,2.2-5.8,5.5-5.8,4.5,1.5,5,4l-1.9.4c-.4-1.6-1.1-2.6-3.1-2.6h-.1Z"/>
    <path class="st0" d="M307.4,64.6c0-4.5,2.3-7.5,6.8-7.5s5.7,1.9,6.2,5.1l-2,.4c-.5-2.4-1.8-3.6-4.2-3.6s-4.6,2.2-4.6,5.6,1.4,5.3,4.7,5.3,4.3-1.8,4.3-3.7h-4.4v-1.8h6.4v7.2h-2v-3.2h-.2c-.6,1.9-2.1,3.4-4.8,3.4s-6.2-2.4-6.2-7.1h0Z"/>
    <path class="st0" d="M322.5,65.9c0-3.6,2.2-5.7,5.5-5.7s5.5,2.1,5.5,5.7-2,5.8-5.5,5.8-5.5-2.2-5.5-5.8ZM324.5,65.9c0,2.5,1.1,4,3.4,4s3.5-1.6,3.5-4-1.2-4-3.5-4-3.5,1.5-3.5,4h.1Z"/>
    <path class="st0" d="M335,65.9c0-3.6,2.2-5.7,5.5-5.7s5.5,2.1,5.5,5.7-2,5.8-5.5,5.8-5.5-2.2-5.5-5.8ZM337.1,65.9c0,2.5,1.1,4,3.4,4s3.5-1.6,3.5-4-1.2-4-3.5-4-3.5,1.5-3.5,4h.1Z"/>
    <path class="st0" d="M355.9,68.5h-.1c-.5,1.9-1.9,3.2-4,3.2s-4.2-2-4.2-5.7,1.6-5.8,4.3-5.8,3.4,1.3,3.9,3.2h.1v-7h2v15.1h-2v-2.9h0ZM355.9,66.4v-.8c0-2.1-1.2-3.5-3.2-3.5s-3.1,1.3-3.1,4,1,3.9,3.1,3.9,3.2-1.3,3.2-3.5h0Z"/>
  </g>
</svg>