<?xml version="1.0" encoding="UTF-8"?>
<svg id="Layer_1" xmlns="http://www.w3.org/2000/svg" version="1.1" viewBox="0 0 754.5 81.1">
  <!-- Generator: Adobe Illustrator 30.0.0, SVG Export Plug-In . SVG Version: 2.1.1 Build 123)  -->
  <defs>
    <style>
      .st0 {
        fill: #f4f4eb;
      }
    </style>
  </defs>
  <path class="st0" d="M117.9,21.2h33.4v4.2h-14.3v37.9h-4.9V25.3h-14.2v-4.2h0Z"/>
  <path class="st0" d="M170.8,44.1l10.7-.6v-2c0-6.2-3.1-8.7-9.2-8.7s-8.1.8-10,1.3l-.4-4.4c1-.3,5.2-1.1,10.4-1.1,9.8,0,14,4.2,14,12.7v10.3c0,3.9.5,8,1.1,11.7l-3.6.6c-.6-2.5-1.1-5-1.4-7.5h-.2c-2.1,5.3-6.8,7.7-12.2,7.7s-10.9-4.2-10.9-10.4,3.3-9,11.8-9.4v-.2h-.1ZM170.9,59.8c5,0,10.6-3.4,10.6-9.1v-3.8l-9.4.6c-6.6.4-8.2,2.9-8.2,5.9,0,4.3,2.6,6.4,7,6.4h0Z"/>
  <path class="st0" d="M201.8,76.2c-2,0-3.6-.3-5.3-.8l.4-4.4c1.4.4,3.2.9,5.1.9,4.5,0,7.2-1.6,9.6-7.4l-14.3-35,4.9-.8,7.9,20.4c1.1,2.8,2.3,5.9,3.4,8.7h.3l8.3-29.1,4.8.7-10,32.8c-3.2,10.5-7.5,14-15,14h0Z"/>
  <path class="st0" d="M240.6,50.6v-31.3l-9.7.4.4-4.5h14.2v34.3c0,6.5,2.4,10,8.1,10s4.8-.5,6.5-1l.5,4.5c-1.7.5-4.5,1-7.4,1-9,0-12.6-5-12.6-13.3h0Z"/>
  <path class="st0" d="M270.9,47.5v-2.8c0-10.3,5.3-16.4,14.9-16.4s14.8,6.1,14.8,16.4v2.8c0,10.3-5.3,16.4-14.9,16.4s-14.8-6.1-14.8-16.4ZM285.8,59.7c6.7,0,10.1-4.2,10.1-12.1v-2.8c0-8-3.4-12.1-10-12.1s-10.1,4.1-10.1,12.1v2.8c0,8,3.4,12.1,10,12.1Z"/>
  <path class="st0" d="M318.9,33l-9.1.4.4-4.3h13l.2,9.7h.2c3.7-4.6,10.8-9.2,16.3-10.9l1.9,5.5c-6.5,1.5-13.2,5-18,9.4v20.6h-4.8v-30.3h-.1Z"/>
  <path class="st0" d="M386.8,40.2h12v19.8c-3,2.2-6.3,3.3-11.5,3.3-9.9,0-15.5-6-15.5-17v-9.6c0-10,5.7-16.9,16.1-16.9s7.5.4,9.6.7l-.7,4.2c-2.1-.3-5.3-.7-9.5-.7-6.7,0-10.7,4.8-10.7,12.6v9.6c0,8,4,12.8,11.1,12.8s4.5-.5,6.1-1.2v-13.7l-7.2.3s.2-4.2.2-4.2Z"/>
  <path class="st0" d="M415.2,47.1c.1,7.7,4,11.9,11.5,11.9s6.5-1,9.3-2.5l1.3,3.8c-3.4,2-6.9,3-11.1,3-9.8,0-15.7-5.8-15.7-16.5v-2.8c0-9.8,5.5-16.4,14.8-16.4s14.3,6.4,14.3,16.2v3.3h-24.4,0ZM434.7,43.2c-.2-7.3-3.6-11.4-9.6-11.4s-9.8,4-9.9,11.4h19.5Z"/>
  <path class="st0" d="M448.9,46.8v-2.8c0-10.3,5.3-16.4,14.9-16.4s14.8,6.1,14.8,16.4v2.8c0,10.3-5.3,16.4-14.9,16.4s-14.8-6.1-14.8-16.4ZM463.7,59c6.7,0,10.1-4.2,10.1-12.1v-2.8c0-8-3.4-12.1-10-12.1s-10.1,4.1-10.1,12.1v2.8c0,8,3.4,12.1,10,12.1Z"/>
  <path class="st0" d="M488.7,59.3l1.8-3.9c2.7,1.7,7.4,3.8,12.5,3.8s8.7-1.8,8.7-5.9-1.5-4.4-6.5-5.6l-6.8-1.7c-4.8-1.2-7.7-4-7.7-8.7s5-9.6,12.7-9.6,9.7,1.3,11.8,2.1l-1.2,4.1c-1.8-.8-6.2-2.1-10.6-2.1s-8.1,1.8-8.1,5.4,2,3.9,5.5,4.8l5.6,1.4c6.5,1.6,10,4,10,9.6s-5,10.4-13.5,10.4-11.7-2.1-14.2-4h0Z"/>
  <path class="st0" d="M533.9,60.6h-.3c.3,4,.3,7.7.3,11.6v4.1h-4.8V28.1h3.5l.5,3h0c2.3-1.9,6-3.6,10.5-3.6,8.7,0,12.7,5.9,12.7,15.7v3.3c0,10.3-4.9,16.7-14,16.7s-6.4-1.1-8.4-2.6ZM542.1,59c6,0,9.4-4.6,9.4-11.8v-3.8c0-7.7-3-11.8-9.6-11.8s-5.7.8-8,2v23.4c2.3,1.4,5.2,2,8.2,2h0Z"/>
  <path class="st0" d="M578.1,43.4l10.7-.6v-2c0-6.2-3.1-8.7-9.2-8.7s-8.1.8-10,1.3l-.4-4.4c1-.3,5.2-1.1,10.4-1.1,9.8,0,14,4.2,14,12.7v10.3c0,3.9.5,8,1.1,11.7l-3.6.6c-.6-2.5-1.1-5-1.4-7.5h-.2c-2.1,5.3-6.8,7.7-12.2,7.7s-10.9-4.2-10.9-10.4,3.3-9,11.8-9.4v-.2h0ZM578.1,59.1c5,0,10.6-3.4,10.6-9.1v-3.8l-9.4.6c-6.6.4-8.2,2.9-8.2,5.9,0,4.3,2.6,6.4,7,6.4h0Z"/>
  <path class="st0" d="M611.1,28.4v-9.4h4.9v9.3l17.4-.2-.6,4.3h-16.8v19.3c0,4.6,2.7,7.3,8.2,7.3s6.2-.8,8.4-1.4l.4,4.2c-2.3.8-6.4,1.6-9.9,1.6-8.1,0-12-4-12-10.6v-20.4h-8.2v-3.9h8.2,0Z"/>
  <path class="st0" d="M654.7,50.7v-18.6l-11.3.4.3-4.3h15.9v21.5c0,5.7.9,9.1,6.1,9.1s4.8-.7,6.4-1.3l.8,4.1c-1.8.9-5,1.7-8.1,1.7-7,0-10-3.8-10-12.5h-.1ZM657.2,12c2.3,0,4,1.5,4,3.5s-1.7,3.7-4,3.7-3.9-1.6-3.9-3.7,1.7-3.5,3.9-3.5Z"/>
  <path class="st0" d="M694,43.4l10.7-.6v-2c0-6.2-3.1-8.7-9.2-8.7s-8.1.8-10,1.3l-.4-4.4c1-.3,5.2-1.1,10.4-1.1,9.8,0,14,4.2,14,12.7v10.3c0,3.9.5,8,1.1,11.7l-3.6.6c-.6-2.5-1.1-5-1.4-7.5h-.2c-2.1,5.3-6.8,7.7-12.2,7.7s-10.9-4.2-10.9-10.4,3.3-9,11.8-9.4v-.2h0ZM694.1,59.1c5,0,10.6-3.4,10.6-9.1v-3.8l-9.4.6c-6.6.4-8.2,2.9-8.2,5.9,0,4.3,2.6,6.4,7,6.4h0Z"/>
  <path class="st0" d="M729.8,49.9v-31.3l-9.7.4.4-4.5h14.2v34.3c0,6.5,2.4,10,8.1,10s4.8-.5,6.5-1l.5,4.5c-1.7.5-4.5,1-7.4,1-9,0-12.6-5-12.6-13.3h0Z"/>
  <g>
    <g>
      <path class="st0" d="M21.6,31.6l-8.8,8.8c-.3.3-.3.8,0,1.1l8.8,8.8c.6.6,1.5,0,1.3-.8-2-5.5-2-11.5,0-17,.3-.8-.7-1.4-1.3-.8h0Z"/>
      <path class="st0" d="M32.3,21l8.8-8.8c.3-.3.8-.3,1.1,0l8.8,8.8c.6.6,0,1.5-.8,1.3-5.5-2-11.5-2-17,0-.8.3-1.4-.7-.8-1.3h0Z"/>
      <path class="st0" d="M61.6,50.4l8.8-8.8c.3-.3.3-.8,0-1.1l-8.8-8.8c-.6-.6-1.5,0-1.3.8,2,5.5,2,11.5,0,17-.3.8.7,1.4,1.3.8h0Z"/>
      <path class="st0" d="M51,61l-8.8,8.8c-.3.3-.8.3-1.1,0l-8.8-8.8c-.6-.6,0-1.5.8-1.3,5.5,2,11.5,2,17,0,.8-.3,1.4.7.8,1.3h0Z"/>
    </g>
    <g>
      <path class="st0" d="M79,21.1V4.7c0-.5-.4-1-1-1h-16c-1,0-1.4,1.4-.4,1.9,7,3.2,12.5,8.8,15.5,15.9.4,1,1.9.7,1.9-.4Z"/>
      <path class="st0" d="M4.2,60.9v16.4c0,.5.4,1,1,1h16c1,0,1.4-1.4.4-1.9-7-3.2-12.5-8.8-15.5-15.9-.4-1-1.9-.7-1.9.4Z"/>
      <path class="st0" d="M61.6,78.2h16.4c.5,0,1-.4,1-1v-16c0-1-1.4-1.4-1.9-.4-3.2,7-8.8,12.5-15.9,15.5-1,.4-.7,1.9.4,1.9Z"/>
      <path class="st0" d="M21.6,3.8H5.2c-.5,0-1,.4-1,1v16c0,1,1.4,1.4,1.9.4,3.2-7,8.8-12.5,15.9-15.5s.7-1.9-.4-1.9Z"/>
    </g>
  </g>
</svg>