<svg width="38" height="37" viewBox="0 0 38 37" fill="none" xmlns="http://www.w3.org/2000/svg">
<path fill-rule="evenodd" clip-rule="evenodd" d="M31.4194 0.950781C31.3081 0.398403 30.8117 0 30.2344 0C29.6572 0 29.1606 0.398403 29.0495 0.950781C28.4833 3.76458 26.216 5.99068 23.4379 6.53532C22.874 6.64587 22.4683 7.12891 22.4683 7.68979C22.4683 8.25067 22.874 8.73373 23.4379 8.84426C26.2167 9.38904 28.4826 11.6119 29.0489 14.4251C29.16 14.9774 29.6565 15.3758 30.2337 15.3758C30.8111 15.3758 31.3076 14.9774 31.4187 14.4251C31.9848 11.6121 34.2515 9.38905 37.0304 8.84426C37.5943 8.73373 38 8.25067 38 7.68979C38 7.12891 37.5943 6.64587 37.0304 6.53532C34.2523 5.9907 31.9856 3.7647 31.4194 0.950781ZM2.01136 9.98098C-0.548024 12.4768 -0.391926 15.8569 0.963254 19.0476C1.44409 20.1797 2.09275 21.3403 2.87723 22.5105C2.09605 23.6756 1.44918 24.8319 0.968753 25.9603C-0.389767 29.1512 -0.552718 32.5371 2.01239 35.0386C4.57178 37.5344 8.03781 37.3822 11.3098 36.0607C12.4705 35.5919 13.6602 34.9596 14.8598 34.1948C16.0541 34.9561 17.2393 35.5865 18.3958 36.0549C21.6679 37.3796 25.1402 37.5386 27.7053 35.0371C30.2647 32.5412 30.1085 29.1612 28.7533 25.9705C28.2727 24.8388 27.6243 23.6788 26.8404 22.5091C27.4034 21.6694 27.8961 20.8352 28.3068 20.0136C28.6966 19.2342 28.3645 18.2943 27.5652 17.9142C26.766 17.5342 25.8021 17.858 25.4124 18.6374C25.2255 19.0112 25.0164 19.3921 24.7861 19.779C23.7684 18.5545 22.6296 17.3351 21.4066 16.1423C20.1775 14.9438 18.9205 13.8275 17.6581 12.8297C18.0551 12.605 18.446 12.401 18.8297 12.2187C19.6291 11.8388 19.9614 10.899 19.572 10.1195C19.1825 9.33994 18.2187 9.01594 17.4193 9.39576C16.5763 9.79633 15.7203 10.277 14.8585 10.8264C13.6642 10.0649 12.4796 9.43438 11.3238 8.96585C8.04925 7.63854 4.57676 7.47924 2.01136 9.98098ZM12.0591 12.8296C11.3817 12.446 10.7228 12.1229 10.0878 11.8655C7.37109 10.7643 5.52112 10.9992 4.28833 12.2014C3.05853 13.4007 2.81513 15.2015 3.93829 17.8461C4.20281 18.4687 4.5357 19.1155 4.93147 19.7804C5.95007 18.5549 7.08898 17.3356 8.3111 16.1438L8.3306 16.1248C9.55524 14.9305 10.8053 13.8207 12.0591 12.8296ZM4.93149 25.2404C4.53804 25.9014 4.20661 26.5445 3.94272 27.1644C2.81579 29.8112 3.05629 31.6156 4.28937 32.8181C5.51916 34.0174 7.36584 34.2548 10.0776 33.1595C10.7159 32.9017 11.3786 32.5773 12.0601 32.1915C10.8031 31.198 9.55214 30.087 8.32956 28.8948L8.31006 28.8758C7.08735 27.6833 5.94906 26.4644 4.93149 25.2404ZM14.8598 30.3454C13.4705 29.3083 12.0395 28.0716 10.6065 26.6744L10.587 26.6552C9.15374 25.2575 7.88669 23.8633 6.82478 22.5103C7.88785 21.1561 9.15567 19.7611 10.5881 18.3642L10.6076 18.3452C12.0385 16.9498 13.4687 15.7134 14.8584 14.676C16.2527 15.7165 17.6896 16.9586 19.1295 18.3628C20.5634 19.7609 21.8309 21.1558 22.893 22.5091C21.8238 23.8716 20.5491 25.2735 19.1112 26.6758C17.6776 28.0738 16.2474 29.3096 14.8598 30.3454ZM17.6595 32.1915C18.3367 32.5748 18.9956 32.8976 19.6306 33.1546C22.345 34.2537 24.1952 34.0191 25.4282 32.8167C26.6581 31.6173 26.9014 29.8166 25.7782 27.1721C25.514 26.5499 25.1815 25.9038 24.7861 25.2393C23.7641 26.4695 22.6193 27.6955 21.3881 28.8962C20.1651 30.0888 18.9151 31.1991 17.6595 32.1915Z" fill="#3B1E1C"/>
</svg>
