<svg width="28" height="34" viewBox="0 0 28 34" fill="none" xmlns="http://www.w3.org/2000/svg">
<path fill-rule="evenodd" clip-rule="evenodd" d="M26.894 7.23996C27.3414 7.23996 27.7445 6.97366 27.9157 6.56524C28.0869 6.15682 27.9924 5.6867 27.6761 5.3741L22.5627 0.320163C22.3553 0.115171 22.074 4.37217e-06 21.7807 1.24489e-10C21.4874 -4.37192e-06 21.206 0.115151 20.9986 0.320136L15.8848 5.37407C15.5685 5.68666 15.474 6.15679 15.6452 6.56522C15.8164 6.97365 16.2196 7.23996 16.667 7.23996H20.307V31.0853H2.94919V15.8989C2.94919 15.094 2.28898 14.4415 1.47459 14.4415C0.66019 14.4415 0 15.094 0 15.8989V31.0853C0 32.6951 1.3204 34 2.94919 34H20.307C21.9358 34 23.2562 32.6951 23.2562 31.0853V7.23996H26.894ZM8.16499 16.9806C6.94339 16.9806 5.9531 17.9594 5.9531 19.1667V25.9575C5.9531 27.1647 6.94339 28.1435 8.16499 28.1435H15.0894C16.311 28.1435 17.3012 27.1647 17.3012 25.9575V19.1667C17.3012 17.9594 16.311 16.9806 15.0893 16.9806H8.16499Z" fill="black"/>
</svg>
