<svg width="48" height="31" viewBox="0 0 48 31" fill="none" xmlns="http://www.w3.org/2000/svg">
<path d="M32.3195 0.0024851C29.3758 0.00696097 26.4931 0.831832 24.002 2.38245C21.1997 0.636958 17.9097 -0.184937 14.6052 0.0349481C11.3006 0.254834 8.15168 1.50517 5.61122 3.60617C3.07076 5.70717 1.26964 8.55058 0.466864 11.7275C-0.335914 14.9045 -0.0989952 18.2513 1.14355 21.2867V21.4222C2.56817 24.8687 5.2015 27.6921 8.56081 29.3748H8.6978C11.0995 30.5652 13.773 31.1181 16.456 30.979C19.139 30.8399 21.7393 30.0137 24.002 28.5814C26.0566 29.8603 28.3838 30.6493 30.7998 30.886C33.2158 31.1226 35.6544 30.8005 37.9228 29.9452C40.1913 29.0898 42.2274 27.7245 43.8704 25.9572C45.5134 24.19 46.7181 22.0692 47.3895 19.7624C48.0609 17.4556 48.1804 15.0261 47.7387 12.6657C47.297 10.3054 46.3062 8.07898 44.8445 6.16238C43.3828 4.24579 41.4903 2.69155 39.3165 1.62248C37.1428 0.55341 34.7473 -0.00119744 32.3195 0.0024851ZM36.6446 4.70437L30.5777 10.7027C29.8766 8.60327 28.7289 6.67671 27.2116 5.05266C28.67 4.33972 30.2646 3.9401 31.8904 3.88007C33.5162 3.82004 35.1365 4.10097 36.6446 4.70437ZM24.002 23.6667C21.815 21.4915 20.5874 18.549 20.5874 15.4819C20.5874 12.4149 21.815 9.47238 24.002 7.29718C26.189 9.47238 27.4166 12.4149 27.4166 15.4819C27.4166 18.549 26.189 21.4915 24.002 23.6667ZM5.33166 20.9578L15.4497 10.9542C15.6331 10.7743 15.7787 10.5603 15.878 10.3245C15.9774 10.0887 16.0286 9.83583 16.0286 9.5804C16.0286 9.32497 15.9774 9.07206 15.878 8.83627C15.7787 8.60048 15.6331 8.38648 15.4497 8.2066C15.083 7.84622 14.587 7.64393 14.0699 7.64393C13.5529 7.64393 13.0569 7.84622 12.6902 8.2066L4.02043 16.7783V15.4819C4.02043 12.4029 5.25757 9.44994 7.45969 7.27272C9.66181 5.0955 12.6485 3.87235 15.7628 3.87235C17.5348 3.87034 19.2832 4.27435 20.8707 5.05266C18.1841 7.87758 16.6805 11.6044 16.663 15.4819C16.665 16.162 16.7173 16.8411 16.8196 17.5136L9.12836 25.1566C7.53708 24.0822 6.23406 22.6411 5.33166 20.9578ZM12.9838 26.7626L18.1308 21.7898C18.816 23.3039 19.7482 24.6962 20.8903 25.9112C19.2732 26.7042 17.4895 27.1086 15.6845 27.0915C14.7742 27.0896 13.8674 26.9791 12.9838 26.7626ZM32.3195 27.0915C30.5475 27.0935 28.7991 26.6895 27.2116 25.9112C29.8697 23.0744 31.3447 19.349 31.341 15.4819L40.0695 6.77475C41.2687 7.82225 42.2407 9.09922 42.9268 10.5285L33.3176 20.029C32.9531 20.3916 32.7485 20.882 32.7485 21.3932C32.7485 21.9043 32.9531 22.3948 33.3176 22.7573C33.4989 22.9401 33.715 23.0856 33.9535 23.1852C34.192 23.2849 34.4482 23.3367 34.7071 23.3378C34.9661 23.3367 35.2222 23.2849 35.4607 23.1852C35.6992 23.0856 35.9154 22.9401 36.0966 22.7573L44.0423 15.0176V15.5787C44.0165 18.6376 42.7707 21.5628 40.5756 23.7186C38.3805 25.8744 35.4135 27.0865 32.3195 27.0915Z" fill="#3B1E1C"/>
</svg>
