<?xml version="1.0" encoding="UTF-8"?>
<svg id="Layer_1" xmlns="http://www.w3.org/2000/svg" version="1.1" viewBox="0 0 365.2 126">
  <!-- Generator: Adobe Illustrator 30.2.1, SVG Export Plug-In . SVG Version: 2.1.1 Build 1)  -->
  <defs>
    <style>
      .st0 {
        fill: #f4f4eb;
      }

      .st1 {
        fill: #3b1e1c;
      }
    </style>
  </defs>
  <rect class="st0" x="126" width="239.2" height="126"/>
  <rect class="st1" width="126" height="126"/>
  <g>
    <g>
      <path class="st1" d="M155.8,39.1h15.9v2h-6.8v18h-2.3v-18h-6.7v-2h0Z"/>
      <path class="st1" d="M180.9,50l5.1-.3v-1c0-3-1.5-4.1-4.4-4.1s-3.9.4-4.7.6l-.2-2.1c.5,0,2.5-.5,5-.5,4.7,0,6.6,2,6.6,6v4.9c0,1.9.2,3.8.5,5.6l-1.7.3c-.3-1.2-.5-2.4-.7-3.6h0c-1,2.5-3.2,3.6-5.8,3.6s-5.2-2-5.2-5,1.6-4.3,5.6-4.5h-.1ZM180.9,57.4c2.4,0,5-1.6,5-4.3v-1.8l-4.5.3c-3.1.2-3.9,1.4-3.9,2.8,0,2,1.2,3,3.3,3h0Z"/>
      <path class="st1" d="M195.6,65.2c-.9,0-1.7,0-2.5-.4l.2-2.1c.7.2,1.5.4,2.4.4,2.1,0,3.4-.7,4.5-3.5l-6.8-16.6,2.3-.4,3.7,9.7c.5,1.3,1.1,2.8,1.6,4.1h.1l3.9-13.8,2.3.3-4.7,15.6c-1.5,5-3.6,6.7-7.1,6.7h.1Z"/>
      <path class="st1" d="M214,53.1v-14.9l-4.6.2.2-2.1h6.7v16.3c0,3.1,1.1,4.7,3.9,4.7s2.3-.2,3.1-.5l.2,2.1c-.8.2-2.1.5-3.5.5-4.3,0-6-2.4-6-6.3h0Z"/>
      <path class="st1" d="M228.4,51.6v-1.3c0-4.9,2.5-7.8,7.1-7.8s7,2.9,7,7.8v1.3c0,4.9-2.5,7.8-7.1,7.8s-7-2.9-7-7.8ZM235.5,57.4c3.2,0,4.8-2,4.8-5.8v-1.3c0-3.8-1.6-5.8-4.7-5.8s-4.8,1.9-4.8,5.8v1.3c0,3.8,1.6,5.8,4.7,5.8Z"/>
      <path class="st1" d="M251.2,44.7l-4.3.2.2-2.1h6.2v4.6h.2c1.8-2.2,5.1-4.4,7.7-5.2l.9,2.6c-3.1.7-6.3,2.4-8.5,4.5v9.8h-2.3v-14.4h-.1Z"/>
      <path class="st1" d="M164.3,78.5h5.7v9.4c-1.4,1-3,1.6-5.4,1.6-4.7,0-7.4-2.9-7.4-8.1v-4.6c0-4.7,2.7-8,7.6-8s3.6.2,4.6.3l-.3,2c-1,0-2.5-.3-4.5-.3-3.2,0-5.1,2.3-5.1,6v4.6c0,3.8,1.9,6.1,5.3,6.1s2.1-.2,2.9-.6v-6.5h-3.4c0,0,0-1.9,0-1.9h0Z"/>
      <path class="st1" d="M177.8,81.7c0,3.7,1.9,5.6,5.4,5.6s3.1-.5,4.4-1.2l.6,1.8c-1.6.9-3.3,1.4-5.3,1.4-4.7,0-7.5-2.7-7.5-7.8v-1.3c0-4.7,2.6-7.8,7-7.8s6.8,3,6.8,7.7v1.6h-11.5.1ZM187,79.9c0-3.5-1.7-5.4-4.5-5.4s-4.6,1.9-4.7,5.4h9.3-.1Z"/>
      <path class="st1" d="M193.7,81.6v-1.3c0-4.9,2.5-7.8,7.1-7.8s7,2.9,7,7.8v1.3c0,4.9-2.5,7.8-7.1,7.8s-7-2.9-7-7.8ZM200.8,87.4c3.2,0,4.8-2,4.8-5.8v-1.3c0-3.8-1.6-5.8-4.7-5.8s-4.8,1.9-4.8,5.8v1.3c0,3.8,1.6,5.8,4.7,5.8Z"/>
      <path class="st1" d="M212.7,87.5l.8-1.9c1.3.8,3.5,1.8,5.9,1.8s4.1-.8,4.1-2.8-.7-2.1-3.1-2.7l-3.2-.8c-2.3-.6-3.7-1.9-3.7-4.1s2.4-4.6,6-4.6,4.6.6,5.6,1l-.6,1.9c-.8-.4-3-1-5-1s-3.8.8-3.8,2.6.9,1.9,2.6,2.3l2.7.7c3.1.7,4.7,1.9,4.7,4.5s-2.4,4.9-6.4,4.9-5.6-1-6.7-1.9h0Z"/>
      <path class="st1" d="M234.1,88.2h-.1c.1,1.9.1,3.7.1,5.5v1.9h-2.3v-22.8h1.7l.2,1.4h0c1.1-.9,2.8-1.7,5-1.7,4.1,0,6,2.8,6,7.5v1.6c0,4.9-2.3,7.9-6.7,7.9s-3-.5-4-1.3h0ZM238,87.4c2.8,0,4.4-2.2,4.4-5.6v-1.8c0-3.6-1.4-5.6-4.6-5.6s-2.7.4-3.8.9v11.1c1.1.7,2.4,1,3.9,1h.1Z"/>
      <path class="st1" d="M255.1,80l5.1-.3v-1c0-3-1.5-4.1-4.4-4.1s-3.9.4-4.7.6l-.2-2.1c.5,0,2.5-.5,5-.5,4.7,0,6.6,2,6.6,6v4.9c0,1.9.2,3.8.5,5.6l-1.7.3c-.3-1.2-.5-2.4-.7-3.6h0c-1,2.5-3.2,3.6-5.8,3.6s-5.2-2-5.2-5,1.6-4.3,5.6-4.5h0ZM255.1,87.5c2.4,0,5-1.6,5-4.3v-1.8l-4.5.3c-3.1.2-3.9,1.4-3.9,2.8,0,2,1.2,3,3.3,3h.1Z"/>
      <path class="st1" d="M270.7,72.9v-4.4h2.3v4.4h8.2l-.3,1.9h-8v9.1c0,2.2,1.3,3.5,3.9,3.5s3-.4,4-.7l.2,2c-1.1.4-3,.7-4.7.7-3.8,0-5.7-1.9-5.7-5v-9.7h-3.9v-1.9h4Z"/>
      <path class="st1" d="M291.4,83.5v-8.8l-5.4.2v-2.1h7.7v10.2c0,2.7.4,4.3,2.9,4.3s2.3-.3,3-.6l.4,1.9c-.8.4-2.4.8-3.9.8-3.3,0-4.7-1.8-4.7-5.9ZM292.6,65.1c1.1,0,1.9.7,1.9,1.6s-.8,1.8-1.9,1.8-1.9-.8-1.9-1.8.8-1.6,1.9-1.6Z"/>
      <path class="st1" d="M310.1,80l5.1-.3v-1c0-3-1.5-4.1-4.4-4.1s-3.9.4-4.7.6l-.2-2.1c.5,0,2.5-.5,5-.5,4.7,0,6.6,2,6.6,6v4.9c0,1.9.2,3.8.5,5.6l-1.7.3c-.3-1.2-.5-2.4-.7-3.6h0c-1,2.5-3.2,3.6-5.8,3.6s-5.2-2-5.2-5,1.6-4.3,5.6-4.5h0ZM310.1,87.5c2.4,0,5-1.6,5-4.3v-1.8l-4.5.3c-3.1.2-3.9,1.4-3.9,2.8,0,2,1.2,3,3.3,3h.1Z"/>
      <path class="st1" d="M327.1,83.1v-14.9l-4.6.2.2-2.1h6.7v16.3c0,3.1,1.1,4.7,3.9,4.7s2.3-.2,3.1-.5l.2,2.1c-.8.2-2.1.5-3.5.5-4.3,0-6-2.4-6-6.3h0Z"/>
    </g>
    <g>
      <g>
        <path class="st0" d="M42.9,53.6l-8.8,8.8c-.3.3-.3.8,0,1.1l8.8,8.8c.6.6,1.6,0,1.3-.8-2.1-5.5-2.1-11.6,0-17,.3-.8-.7-1.4-1.3-.8h0Z"/>
        <path class="st0" d="M53.6,42.9l8.8-8.8c.3-.3.8-.3,1.1,0l8.8,8.8c.6.6,0,1.6-.8,1.3-5.5-2.1-11.6-2.1-17,0s-1.4-.7-.8-1.3h0Z"/>
        <path class="st0" d="M83.1,72.4l8.8-8.8c.3-.3.3-.8,0-1.1l-8.8-8.8c-.6-.6-1.6,0-1.3.8,2.1,5.5,2.1,11.6,0,17-.3.8.7,1.4,1.3.8h0Z"/>
        <path class="st0" d="M72.4,83.1l-8.8,8.8c-.3.3-.8.3-1.1,0l-8.8-8.8c-.6-.6,0-1.6.8-1.3,5.5,2.1,11.6,2.1,17,0,.8-.3,1.4.7.8,1.3h0Z"/>
      </g>
      <g>
        <path class="st0" d="M100.6,43v-16.5c0-.5-.4-1-1-1h-16.1c-1,0-1.4,1.4-.4,1.9,7,3.2,12.6,8.9,15.6,16,.4,1,1.9.7,1.9-.4Z"/>
        <path class="st0" d="M25.4,83v16.5c0,.5.4,1,1,1h16.1c1,0,1.4-1.4.4-1.9-7-3.2-12.6-8.9-15.6-16-.4-1-1.9-.7-1.9.4Z"/>
        <path class="st0" d="M83.1,100.4h16.5c.5,0,1-.4,1-1v-16.1c0-1-1.4-1.4-1.9-.4-3.2,7-8.9,12.6-16,15.6-1,.4-.7,1.9.4,1.9Z"/>
        <path class="st0" d="M42.9,25.6h-16.5c-.5,0-1,.4-1,1v16.1c0,1,1.4,1.4,1.9.4,3.2-7,8.9-12.6,16-15.6,1-.4.7-1.9-.4-1.9Z"/>
      </g>
    </g>
  </g>
</svg>